Coordinates
version=1
nRows=22
nColumns=24
inDegrees=yes

Units are S.I. units (second, meters, Newtons, ...)
Angles are in degrees.

endheader
time	pelvis_tilt	pelvis_list	pelvis_rotation	pelvis_tx	pelvis_ty	pelvis_tz	hip_flexion_r	hip_adduction_r	hip_rotation_r	knee_angle_r	ankle_angle_r	subtalar_angle_r	mtp_angle_r	hip_flexion_l	hip_adduction_l	hip_rotation_l	knee_angle_l	ankle_angle_l	subtalar_angle_l	mtp_angle_l	lumbar_extension	lumbar_bending	lumbar_rotation
      1.62000000	     -9.93804428	      1.01717263	      3.29228371	     -0.20345190	      1.23425168	     -0.83406816	     34.82845363	      2.49742137	     -0.66694902	    -37.66337771	      8.33159754	     -5.79819046	      6.19497644	     13.09582091	     10.40925698	     13.19544445	    -18.79624712	      6.87593683	     -4.29650073	      7.40552605	     -3.38532512	     -1.86532828	     -0.56393912
      1.62500000	     -9.98797169	      0.93059714	      3.27543176	     -0.19827984	      1.23394532	     -0.83394676	     34.79460781	      2.59912320	     -0.35876772	    -35.40619166	      8.46426165	     -5.98915134	      6.05127665	     12.79831844	     10.29287318	     13.12603128	    -18.91101859	      7.30954030	     -4.09535887	      7.42303074	     -3.38161245	     -1.75651960	     -0.67416224
      1.63000000	    -10.03177160	      0.84087978	      3.30092596	     -0.19306060	      1.23361845	     -0.83389564	     34.67789201	      2.65262349	     -0.13084472	    -33.04201097	      8.54971571	     -6.12663319	      5.93755689	     12.48531684	     10.18953736	     13.12743199	    -19.01627939	      7.69094528	     -3.96448860	      7.47787433	     -3.37710095	     -1.63940920	     -0.83110805
      1.63500000	    -10.06983291	      0.76017371	      3.31888084	     -0.18778719	      1.23325223	     -0.83377231	     34.47688078	      2.70694831	      0.13153769	    -30.56397847	      8.53829660	     -6.35211008	      5.85093170	     12.18173669	     10.08281726	     13.04769479	    -19.15349176	      8.12263332	     -3.73725870	      7.54204539	     -3.37000194	     -1.54462459	     -0.93839563
      1.64000000	    -10.12193475	      0.69628792	      3.33053815	     -0.18247719	      1.23279662	     -0.83359227	     34.23580119	      2.74315168	      0.41782274	    -28.01838660	      8.40661889	     -6.61163287	      5.85074766	     11.92788634	      9.98893774	     12.89070315	    -19.36344370	      8.62078423	     -3.40215092	      7.57668742	     -3.33776266	     -1.48068432	     -0.99999069
      1.64500000	    -10.16303086	      0.65635300	      3.39270262	     -0.17712841	      1.23228510	     -0.83349229	     33.94665465	      2.69679572	      0.58486343	    -25.48187871	      8.27571267	     -6.71574913	      5.85786180	     11.64506101	      9.94177872	     12.83335913	    -19.55065403	      9.04402523	     -3.18472957	      7.62355647	     -3.31524415	     -1.43450479	     -1.11678519
      1.65000000	    -10.23811656	      0.63490790	      3.50952650	     -0.17177656	      1.23167677	     -0.83348453	     33.68965623	      2.57152573	      0.61070804	    -23.01921455	      8.10569796	     -6.63789659	      5.84478814	     11.42339959	      9.94563567	     12.86857593	    -19.78811173	      9.40442027	     -3.05341246	      7.70179064	     -3.25422245	     -1.40670086	     -1.26151124
      1.65500000	    -10.29384808	      0.63148841	      3.59754553	     -0.16633777	      1.23104286	     -0.83337892	     33.39172822	      2.45327780	      0.63984050	    -20.61379306	      7.91668611	     -6.58481304	      5.87317229	     11.16478339	      9.94176376	     12.80660419	    -20.00249580	      9.79817115	     -2.81800643	      7.79580454	     -3.19828517	     -1.40625938	     -1.36117850
      1.66000000	    -10.36233965	      0.64154944	      3.66325915	     -0.16083475	      1.23034510	     -0.83320442	     33.11299616	      2.33736338	      0.65125246	    -18.32140746	      7.72496632	     -6.47973235	      5.96262037	     10.93351007	      9.93774603	     12.65257877	    -20.24700183	     10.25100403	     -2.48351536	      7.87124369	     -3.11728632	     -1.42164018	     -1.43871749
      1.66500000	    -10.43114110	      0.65244719	      3.76477577	     -0.15537307	      1.22962428	     -0.83307791	     32.84178126	      2.19213764	      0.54391279	    -16.15056554	      7.50193656	     -6.20766992	      6.06061736	     10.74700947	      9.95467263	     12.54948897	    -20.57634207	     10.66838698	     -2.18392236	      7.93789883	     -3.04248828	     -1.43799867	     -1.48915849
      1.67000000	    -10.51191243	      0.65446761	      3.90441071	     -0.14986286	      1.22888551	     -0.83301291	     32.58522564	      2.03246425	      0.29504065	    -14.11310689	      7.27468772	     -5.84033533	      6.11180397	     10.57000388	      9.97800498	     12.53197748	    -20.90380633	     11.01487752	     -1.97717455	      8.03811449	     -2.94254642	     -1.44168849	     -1.57653233
      1.67500000	    -10.57485097	      0.66281898	      4.02260055	     -0.14428178	      1.22815597	     -0.83288482	     32.31145767	      1.89300101	      0.02467213	    -12.21135450	      7.03835403	     -5.37407193	      6.23200468	     10.38399680	      9.99054797	     12.43360349	    -21.25730403	     11.39449133	     -1.67454084	      8.16518158	     -2.84736494	     -1.44885481	     -1.62667949
      1.68000000	    -10.65161514	      0.66579259	      4.16115912	     -0.13874046	      1.22739184	     -0.83274256	     32.08123888	      1.76132872	     -0.32322869	    -10.48984477	      6.74207883	     -4.86603853	      6.34793523	     10.25501139	     10.00861374	     12.37349007	    -21.68261722	     11.72541325	     -1.43109209	      8.29425803	     -2.74841673	     -1.46266843	     -1.64052265
      1.68500000	    -10.70183321	      0.67465653	      4.26976690	     -0.13308199	      1.22665259	     -0.83251851	     31.83291035	      1.65809822	     -0.68806795	     -8.94038875	      6.52985821	     -4.18742824	      6.60925172	     10.08810102	      9.99952589	     12.20704790	    -22.10045124	     12.13901764	     -0.98057430	      8.45138701	     -2.65865835	     -1.47679446	     -1.67295886
      1.69000000	    -10.77980022	      0.66910231	      4.40892392	     -0.12743642	      1.22589729	     -0.83233303	     31.63580313	      1.56667988	     -1.11226210	     -7.57819600	      6.21909878	     -3.56023897	      6.80925374	      9.98804545	      9.99815432	     12.12458913	    -22.58383796	     12.46208578	     -0.66321254	      8.61634495	     -2.53811573	     -1.47076256	     -1.69491795
      1.69500000	    -10.84465205	      0.65652840	      4.54124020	     -0.12178450	      1.22516107	     -0.83211342	     31.45641737	      1.50293619	     -1.56091847	     -6.42821333	      5.90029387	     -2.85832233	      7.04819002	      9.90751105	      9.98143143	     12.01596568	    -23.12507961	     12.78047285	     -0.28786916	      8.82937674	     -2.43030160	     -1.45525765	     -1.68515629
      1.70000000	    -10.91574265	      0.63425099	      4.67705216	     -0.11616247	      1.22443422	     -0.83187877	     31.32377491	      1.46350060	     -2.02419789	     -5.50205310	      5.49815017	     -2.19442270	      7.27177876	      9.87838884	      9.95934508	     11.92388431	    -23.73984828	     13.05390006	      0.05215838	      9.07347362	     -2.32218480	     -1.42898343	     -1.64856263
      1.70500000	    -10.98556521	      0.60237419	      4.80003789	     -0.11047045	      1.22373547	     -0.83158828	     31.21331180	      1.45721462	     -2.46064673	     -4.78533016	      5.09836240	     -1.49283868	      7.52345394	      9.86924194	      9.91336913	     11.80043280	    -24.39425096	     13.31712876	      0.44544164	      9.37296153	     -2.19491958	     -1.39394586	     -1.61011341
      1.71000000	    -11.06585575	      0.56315143	      4.91032849	     -0.10476738	      1.22305568	     -0.83131577	     31.13856156	      1.47200309	     -2.86321840	     -4.26391923	      4.67381122	     -0.80145706	      7.78352616	      9.90603082	      9.85947156	     11.65915212	    -25.10221104	     13.55030518	      0.86951966	      9.72298516	     -2.06778981	     -1.32590679	     -1.56199468
      1.71500000	    -11.13769002	      0.50912663	      5.01649377	     -0.09906534	      1.22240921	     -0.83099635	     31.08360435	      1.51769208	     -3.21830939	     -3.94374824	      4.19813511	     -0.16003322	      8.02731702	      9.97909478	      9.78342902	     11.51699771	    -25.88486890	     13.74329794	      1.30639410	     10.12923298	     -1.94546772	     -1.25009682	     -1.49952397
      1.72000000	    -11.21171861	      0.44642741	      5.11819520	     -0.09335627	      1.22180289	     -0.83069870	     31.05025730	      1.57998835	     -3.51861932	     -3.79907149	      3.64753812	      0.39280163	      8.22895550	     10.09377812	      9.70325499	     11.38457913	    -26.72992523	     13.88363761	      1.71705475	     10.57376468	     -1.82095179	     -1.14757979	     -1.41997354
      1.72500000	    -11.27497385	      0.36946205	      5.20795951	     -0.08764312	      1.22125468	     -0.83037518	     31.03670798	      1.67036876	     -3.75794705	     -3.84305641	      3.05702985	      0.89165218	      8.41247281	     10.25244898	      9.59824652	     11.22061946	    -27.66066875	     13.95631725	      2.18032993	     11.13124264	     -1.70968243	     -1.02660913	     -1.33286965
